<svg fill="white" xmlns="http://www.w3.org/2000/svg"  viewBox="0 0 64 64" width="64px" height="64px"><path d="M 29.5625 2 C 28.179688 2 26.984375 2.933594 26.652344 4.273438 L 24.921875 11.164063 C 24.042969 11.464844 23.15625 11.835938 22.28125 12.277344 L 16.175781 8.609375 C 14.992188 7.902344 13.488281 8.089844 12.511719 9.0625 L 9.0625 12.511719 C 8.085938 13.484375 7.902344 14.992188 8.609375 16.175781 L 12.269531 22.28125 C 11.839844 23.148438 11.46875 24.039063 11.171875 24.925781 L 4.273438 26.652344 C 2.933594 26.984375 2 28.183594 2 29.5625 L 2 34.4375 C 2 35.820313 2.933594 37.015625 4.273438 37.347656 L 11.164063 39.078125 C 11.464844 39.960938 11.839844 40.851563 12.277344 41.71875 L 8.609375 47.824219 C 7.902344 49.007813 8.085938 50.511719 9.0625 51.488281 L 12.511719 54.9375 C 13.488281 55.914063 14.992188 56.097656 16.175781 55.390625 L 22.28125 51.730469 C 23.15625 52.164063 24.046875 52.535156 24.925781 52.828125 L 26.652344 59.730469 C 26.984375 61.066406 28.183594 62 29.5625 62 L 34.4375 62 C 35.820313 62 37.015625 61.066406 37.347656 59.730469 L 39.078125 52.835938 C 39.957031 52.535156 40.84375 52.164063 41.71875 51.722656 L 47.824219 55.390625 C 49.007813 56.097656 50.511719 55.910156 51.488281 54.9375 L 54.9375 51.488281 C 55.914063 50.515625 56.097656 49.007813 55.390625 47.824219 L 51.730469 41.71875 C 52.160156 40.851563 52.53125 39.960938 52.828125 39.074219 L 59.726563 37.347656 C 61.066406 37.015625 62 35.816406 62 34.4375 L 62 29.5625 C 62 28.183594 61.066406 26.984375 59.730469 26.652344 L 52.835938 24.921875 C 52.535156 24.039063 52.160156 23.148438 51.722656 22.28125 L 55.390625 16.175781 C 56.097656 14.992188 55.914063 13.488281 54.9375 12.511719 L 51.488281 9.0625 C 50.511719 8.085938 49.007813 7.902344 47.824219 8.609375 L 41.71875 12.269531 C 40.84375 11.835938 39.953125 11.464844 39.074219 11.171875 L 37.347656 4.273438 C 37.015625 2.933594 35.816406 2 34.4375 2 Z M 29.5625 4 L 34.4375 4 C 34.898438 4 35.296875 4.3125 35.40625 4.757813 L 37.132813 11.65625 C 37.296875 12.308594 37.78125 12.835938 38.433594 13.058594 C 39.226563 13.328125 40.03125 13.667969 40.828125 14.0625 C 41.445313 14.371094 42.160156 14.339844 42.746094 13.988281 L 48.855469 10.328125 C 49.25 10.089844 49.75 10.152344 50.074219 10.476563 L 53.523438 13.921875 C 53.847656 14.25 53.910156 14.753906 53.671875 15.144531 L 50.011719 21.25 C 49.660156 21.835938 49.632813 22.554688 49.9375 23.171875 C 50.332031 23.960938 50.667969 24.765625 50.941406 25.566406 C 51.164063 26.214844 51.691406 26.703125 52.34375 26.863281 L 59.238281 28.589844 C 59.6875 28.703125 60 29.101563 60 29.5625 L 60 34.4375 C 60 34.898438 59.6875 35.296875 59.242188 35.40625 L 52.34375 37.132813 C 51.691406 37.296875 51.164063 37.78125 50.941406 38.433594 C 50.671875 39.234375 50.332031 40.039063 49.9375 40.828125 C 49.632813 41.445313 49.660156 42.160156 50.011719 42.746094 L 53.675781 48.855469 C 53.910156 49.246094 53.847656 49.75 53.527344 50.074219 L 50.078125 53.523438 C 49.75 53.847656 49.246094 53.910156 48.855469 53.671875 L 42.75 50.011719 C 42.164063 49.660156 41.445313 49.632813 40.828125 49.9375 C 40.035156 50.332031 39.230469 50.667969 38.433594 50.941406 C 37.785156 51.164063 37.296875 51.691406 37.136719 52.34375 L 35.410156 59.238281 C 35.296875 59.6875 34.898438 60 34.4375 60 L 29.5625 60 C 29.101563 60 28.703125 59.6875 28.59375 59.242188 L 26.867188 52.34375 C 26.703125 51.691406 26.21875 51.164063 25.566406 50.941406 C 24.773438 50.671875 23.96875 50.332031 23.171875 49.9375 C 22.886719 49.796875 22.578125 49.726563 22.273438 49.726563 C 21.917969 49.726563 21.566406 49.820313 21.253906 50.011719 L 15.144531 53.671875 C 14.753906 53.910156 14.25 53.847656 13.925781 53.523438 L 10.476563 50.078125 C 10.152344 49.75 10.089844 49.246094 10.328125 48.855469 L 13.988281 42.75 C 14.339844 42.164063 14.367188 41.445313 14.0625 40.828125 C 13.667969 40.039063 13.332031 39.234375 13.058594 38.433594 C 12.835938 37.785156 12.308594 37.296875 11.65625 37.136719 L 4.757813 35.410156 C 4.3125 35.296875 4 34.898438 4 34.4375 L 4 29.5625 C 4 29.101563 4.3125 28.703125 4.757813 28.589844 L 11.65625 26.863281 C 12.308594 26.703125 12.835938 26.214844 13.058594 25.566406 C 13.328125 24.765625 13.667969 23.960938 14.0625 23.171875 C 14.367188 22.554688 14.339844 21.835938 13.988281 21.25 L 10.324219 15.144531 C 10.089844 14.753906 10.152344 14.25 10.472656 13.921875 L 13.921875 10.476563 C 14.246094 10.152344 14.75 10.089844 15.144531 10.328125 L 21.25 13.988281 C 21.835938 14.339844 22.554688 14.367188 23.171875 14.0625 C 23.964844 13.667969 24.769531 13.328125 25.566406 13.058594 C 26.214844 12.832031 26.703125 12.308594 26.863281 11.65625 L 28.589844 4.757813 C 28.703125 4.3125 29.101563 4 29.5625 4 Z M 33.875 18.125 C 33.339844 18.054688 32.828125 18.4375 32.753906 18.984375 C 32.679688 19.53125 33.0625 20.035156 33.609375 20.109375 C 34.328125 20.203125 35.039063 20.367188 35.730469 20.589844 C 35.832031 20.621094 35.933594 20.640625 36.035156 20.640625 C 36.457031 20.640625 36.851563 20.367188 36.988281 19.949219 C 37.160156 19.421875 36.871094 18.859375 36.347656 18.6875 C 35.542969 18.425781 34.714844 18.234375 33.875 18.125 Z M 29.042969 18.386719 C 28.914063 18.367188 28.78125 18.371094 28.644531 18.40625 C 22.378906 19.945313 18 25.535156 18 32 C 18 37.195313 20.851563 41.941406 25.449219 44.375 C 25.597656 44.457031 25.761719 44.492188 25.917969 44.492188 C 26.277344 44.492188 26.621094 44.300781 26.800781 43.960938 C 27.058594 43.472656 26.875 42.867188 26.386719 42.609375 C 22.449219 40.519531 20 36.453125 20 32 C 20 26.460938 23.75 21.667969 29.125 20.347656 C 29.660156 20.214844 29.988281 19.671875 29.855469 19.136719 C 29.757813 18.734375 29.429688 18.449219 29.042969 18.386719 Z M 41.191406 21.808594 C 40.9375 21.808594 40.679688 21.90625 40.484375 22.101563 L 39.070313 23.515625 C 38.679688 23.90625 38.679688 24.539063 39.070313 24.929688 C 39.265625 25.125 39.519531 25.222656 39.777344 25.222656 C 40.035156 25.222656 40.289063 25.125 40.484375 24.929688 L 41.898438 23.515625 C 42.289063 23.125 42.289063 22.492188 41.898438 22.101563 C 41.703125 21.90625 41.445313 21.808594 41.191406 21.808594 Z M 32 24 C 27.589844 24 24 27.589844 24 32 C 24 36.410156 27.589844 40 32 40 C 36.410156 40 40 36.410156 40 32 C 40 27.589844 36.410156 24 32 24 Z M 43.964844 25.921875 C 43.835938 25.921875 43.703125 25.945313 43.578125 26 L 41.734375 26.78125 C 41.226563 26.996094 40.988281 27.585938 41.203125 28.09375 C 41.367188 28.476563 41.738281 28.703125 42.125 28.703125 C 42.257813 28.703125 42.386719 28.675781 42.515625 28.625 L 44.359375 27.84375 C 44.867188 27.625 45.101563 27.039063 44.886719 26.53125 C 44.726563 26.148438 44.355469 25.917969 43.964844 25.921875 Z M 32 26 C 35.308594 26 38 28.691406 38 32 C 38 35.308594 35.308594 38 32 38 C 28.691406 38 26 35.308594 26 32 C 26 28.691406 28.691406 26 32 26 Z M 32 30 C 30.894531 30 30 30.894531 30 32 C 30 33.105469 30.894531 34 32 34 C 33.105469 34 34 33.105469 34 32 C 34 30.894531 33.105469 30 32 30 Z M 43 31 C 42.449219 31 42 31.445313 42 32 C 42 32.554688 42.449219 33 43 33 L 45 33 C 45.550781 33 46 32.554688 46 32 C 46 31.445313 45.550781 31 45 31 Z M 42.183594 35.121094 C 41.792969 35.128906 41.425781 35.363281 41.269531 35.746094 C 41.066406 36.257813 41.3125 36.84375 41.824219 37.046875 L 43.679688 37.796875 C 43.800781 37.847656 43.929688 37.871094 44.050781 37.871094 C 44.449219 37.871094 44.824219 37.632813 44.980469 37.246094 C 45.1875 36.730469 44.941406 36.148438 44.425781 35.941406 L 42.574219 35.191406 C 42.445313 35.140625 42.3125 35.117188 42.183594 35.121094 Z M 39.777344 38.777344 C 39.523438 38.777344 39.265625 38.875 39.070313 39.070313 C 38.679688 39.460938 38.679688 40.09375 39.070313 40.484375 L 40.484375 41.898438 C 40.679688 42.09375 40.933594 42.191406 41.191406 42.191406 C 41.449219 42.191406 41.703125 42.09375 41.898438 41.898438 C 42.289063 41.507813 42.289063 40.875 41.898438 40.484375 L 40.484375 39.070313 C 40.289063 38.875 40.03125 38.777344 39.777344 38.777344 Z M 36.296875 41.125 C 36.167969 41.125 36.035156 41.152344 35.90625 41.203125 C 35.398438 41.421875 35.160156 42.007813 35.375 42.515625 L 36.15625 44.359375 C 36.320313 44.738281 36.691406 44.96875 37.078125 44.96875 C 37.210938 44.96875 37.34375 44.941406 37.46875 44.890625 C 37.980469 44.671875 38.214844 44.085938 38 43.578125 L 37.21875 41.734375 C 37.058594 41.351563 36.6875 41.125 36.296875 41.125 Z M 32 42 C 31.449219 42 31 42.445313 31 43 L 31 45 C 31 45.554688 31.449219 46 32 46 C 32.550781 46 33 45.554688 33 45 L 33 43 C 33 42.445313 32.550781 42 32 42 Z"/></svg>